# xmcd
#
# Track frame offsets:
# 150
# 18516
# 33280
# 49539
# 60557
# 79164
# 91316
# 107993
# 121315
# 138210
# 152258
# 165833
# 179508
#
# Disc length: 2600 seconds
#
#
# Revision: 4
# Processed by: cddbd v1.5.2PL0 Copyright (c) Steve Scherf et al.
# Submitted via: FreeRIP 2.951 
#
DISCID=950a260d
DTITLE=Cézar and Paulinho - Você Marcou Pra Mim
DYEAR=1998
DGENRE=Sertanejo
TTITLE0=Cuida De Mim Deus
TTITLE1=A Volta Do Boiadeiro
TTITLE2=Você Marcou Pra Mim
TTITLE3=Pé De Bode
TTITLE4=Coração Só Vê Você
TTITLE5=Saco De Ouro
TTITLE6=Cabeça Zoada
TTITLE7=A Filha Do Francês
TTITLE8=Artistas Das Estradas
TTITLE9=Eu E Ela No Forró
TTITLE10=A Noite Do Nosso Amor
TTITLE11=Vai De Roda
TTITLE12=Pout-Pourri De Catira - Passa Morena\n - Tiro A Queima Bucha\n - Meu Bem Falou\n - Rapaz Solteiro
EXTD=
EXTT0=
EXTT1=
EXTT2=
EXTT3=
EXTT4=
EXTT5=
EXTT6=
EXTT7=
EXTT8=
EXTT9=
EXTT10=
EXTT11=
EXTT12=
PLAYORDER=
